<?xml version="1.0" encoding="utf-8"?>
<!-- Generator: Adobe Illustrator 27.5.0, SVG Export Plug-In . SVG Version: 6.00 Build 0)  -->
<svg version="1.1" xmlns="http://www.w3.org/2000/svg" xmlns:xlink="http://www.w3.org/1999/xlink" x="0px" y="0px"
	 viewBox="0 100 500 320" style="enable-background:new 0 0 400 500;" xml:space="preserve">
<g id="BACKGROUND">
</g>
<g id="OBJECTS">
	<g>
		<g>
			<rect x="248.5" y="256.013" style="fill:#CDDBE8;" width="47" height="17.737"/>
			<g>
				<path style="fill:#846675;" d="M350.549,162.673H193.451c-1.722,0-3.117,1.396-3.117,3.117v85.772
					c0,4.115,3.336,7.45,7.451,7.45h148.432c4.115,0,7.451-3.336,7.451-7.45V165.79
					C353.667,164.069,352.271,162.673,350.549,162.673z"/>
				<path style="fill:#ECF3FA;" d="M190.333,241.491v10.071c0,4.115,3.336,7.45,7.451,7.45h148.432c4.115,0,7.451-3.336,7.451-7.45
					v-10.071H190.333z"/>
				<path style="fill:#CDDBE8;" d="M346.216,256.013H197.784c-4.115,0-7.451-3.336-7.451-7.45v3c0,4.115,3.336,7.45,7.451,7.45
					h148.432c4.115,0,7.451-3.336,7.451-7.45v-3C353.667,252.677,350.331,256.013,346.216,256.013z"/>
				<path style="fill:#1E2540;" d="M350.549,162.673H193.451c-1.722,0-3.117,1.396-3.117,3.117v75.701h163.333V165.79
					C353.667,164.069,352.271,162.673,350.549,162.673z M350.667,238.491H193.333V165.79c0-0.065,0.053-0.117,0.117-0.117h157.099
					c0.065,0,0.117,0.052,0.117,0.117V238.491z"/>
				<circle style="fill:#CDDBE8;" cx="272" cy="248.979" r="5"/>
				<rect x="327.458" y="165.673" style="fill:#BA9BC9;" width="23.208" height="72.818"/>
				<rect x="193.333" y="165.673" style="fill:#BA9BC9;" width="4.25" height="72.818"/>
				<rect x="330.167" y="223.908" style="fill:#846675;" width="17.792" height="12.667"/>
				<rect x="330.167" y="195.749" style="fill:#846675;" width="17.792" height="12.667"/>
				<rect x="330.167" y="210.843" style="fill:#846675;" width="17.792" height="4.326"/>
				<rect x="330.167" y="167.111" style="fill:#846675;" width="17.792" height="6.333"/>
				<rect x="330.167" y="174.861" style="fill:#846675;" width="17.792" height="1.255"/>
				<rect x="330.167" y="177.423" style="fill:#846675;" width="17.792" height="1.255"/>
				<rect x="330.167" y="179.986" style="fill:#846675;" width="17.792" height="1.255"/>
				<rect x="330.167" y="182.548" style="fill:#846675;" width="17.792" height="1.255"/>
				<rect x="330.167" y="185.111" style="fill:#846675;" width="17.792" height="1.255"/>
				<rect x="330.167" y="187.673" style="fill:#846675;" width="17.792" height="1.255"/>
				<rect x="330.167" y="190.236" style="fill:#846675;" width="17.792" height="1.255"/>
				<rect x="216.833" y="174.59" style="fill:#DDF2F1;" width="100.333" height="57.636"/>
				<path style="fill:#C1DBD9;" d="M230.583,177.28v52.255h40.5V177.28H230.583z M269.083,227.536h-36.5V179.28h36.5V227.536z"/>
				<rect x="279.667" y="217.574" style="fill:#BA9BC9;" width="22.667" height="11.961"/>
				<rect x="279.667" y="202.435" style="fill:#BA9BC9;" width="22.667" height="11.961"/>
				<rect x="279.667" y="191.491" style="fill:#FEC66E;" width="22.667" height="7.766"/>
				<polygon style="fill:#F8787D;" points="239.599,210.729 219.615,210.729 229.607,193.423 239.599,176.116 249.591,193.423 
					259.583,210.729 				"/>
				<g>
					<rect x="235.5" y="213.491" style="fill:#BA9BC9;" width="30" height="1.333"/>
					<rect x="235.5" y="216.053" style="fill:#BA9BC9;" width="30" height="1.333"/>
					<rect x="235.5" y="218.616" style="fill:#BA9BC9;" width="30" height="1.333"/>
					<rect x="235.5" y="221.178" style="fill:#BA9BC9;" width="30" height="1.333"/>
					<rect x="235.5" y="223.741" style="fill:#BA9BC9;" width="30" height="1.333"/>
				</g>
			</g>
			<rect x="234.5" y="277.083" style="fill:#CDDBE8;" width="75" height="0.985"/>
		</g>
		<g>
			<rect x="364.21" y="223.55" style="fill:#BA9BC9;" width="8.299" height="54.513"/>
			<rect x="364.21" y="223.55" style="opacity:0.2;fill:#27AAE1;" width="3.246" height="54.519"/>
			<rect x="397.372" y="227.45" style="fill:#778AAD;" width="8.299" height="50.613"/>
			<rect x="397.372" y="227.45" style="opacity:0.2;fill:#27AAE1;" width="3.246" height="50.618"/>
			<rect x="372.509" y="232.322" style="fill:#FFC773;" width="8.299" height="45.742"/>
			<rect x="372.509" y="232.322" style="opacity:0.2;fill:#F7941E;" width="3.246" height="45.746"/>
			<rect x="389.106" y="232.322" style="fill:#BA9BC9;" width="8.299" height="45.742"/>
			<rect x="389.106" y="232.322" style="opacity:0.2;fill:#27AAE1;" width="3.246" height="45.746"/>
			<rect x="380.808" y="229.607" style="fill:#7BA0DB;" width="8.299" height="48.457"/>
			<rect x="380.808" y="229.607" style="opacity:0.2;fill:#27AAE1;" width="3.246" height="48.461"/>
			<rect x="405.671" y="229.607" style="fill:#FFC773;" width="12.284" height="48.457"/>
			<rect x="405.671" y="229.607" style="opacity:0.2;fill:#F7941E;" width="3.246" height="48.461"/>
		</g>
		<path style="opacity:0.8;fill:#DDEFFA;" d="M441.639,429.508H57.361c-5.552,0-10.095-4.543-10.095-10.095l0,0
			c0-5.552,4.543-10.095,10.095-10.095h384.278c5.552,0,10.095,4.543,10.095,10.095l0,0
			C451.733,424.965,447.191,429.508,441.639,429.508z"/>
		<path style="fill:#ECF3FA;" d="M306.688,273.75h-69.375c-1.553,0-2.812,1.259-2.812,2.813v1.506h75v-1.506
			C309.5,275.009,308.241,273.75,306.688,273.75z"/>
		<rect x="248.5" y="259.013" style="fill:#C6CFE5;" width="47" height="4.112"/>
		<rect x="203.5" y="248.562" style="fill:#FEC66E;" width="17.5" height="20.438"/>
		<g>
			<path style="fill:#ECF3FA;" d="M327,267.159h-0.75c-5.661,0-10.25,4.589-10.25,10.25v0.659h21.25v-0.659
				C337.25,271.748,332.661,267.159,327,267.159z"/>
			<path style="fill:#CDDBE8;" d="M316,277.409v0.659h21.25v-0.659c0-0.891-0.126-1.751-0.339-2.576h-20.571
				C316.125,275.658,316,276.518,316,277.409z"/>
		</g>
		<g>
			<rect x="113.083" y="285.5" style="fill:#E9947E;" width="317.608" height="18.568"/>
			<rect x="113.083" y="304.068" style="fill:#FFD599;" width="317.608" height="3.835"/>
			<g>
				<rect x="98.5" y="278.068" style="fill:#FFE7A6;" width="347" height="12"/>
				<polygon style="fill:#FFD599;" points="118.5,290.068 107.667,290.068 107.667,420.068 114.5,420.068 				"/>
				<polygon style="fill:#FFD599;" points="425.082,290.068 435.915,290.068 435.915,420.068 429.082,420.068 				"/>
			</g>
			<path style="fill:#ECF3FA;" d="M332.504,298h-127c-1.107,0-2.004,0.897-2.004,2.004v4.064h131.008v-4.064
				C334.508,298.897,333.611,298,332.504,298z"/>
			<rect x="203.5" y="301.667" style="fill:#CDDBE8;" width="131.008" height="2.401"/>
		</g>
		<g>
			<g>
				<g>
					<path style="fill:#5B7DB2;" d="M162.125,274.063h-7.983c-2.835,0-5.142-2.307-5.142-5.142v-9.154
						c0-2.835,2.307-5.142,5.142-5.142h7.983V274.063z M154.142,257.625c-1.181,0-2.142,0.961-2.142,2.142v9.154
						c0,1.181,0.961,2.142,2.142,2.142h4.983v-13.438H154.142z"/>
				</g>
				<path style="fill:#7092D2;" d="M176.469,249.562h-17.437c-1.122,0-2.031,0.909-2.031,2.031v26.475h21.5v-26.475
					C178.5,250.472,177.59,249.562,176.469,249.562z"/>
				<path style="fill:#7BA0DB;" d="M174.793,278.068h3.707v-26.475c0-1.122-0.91-2.031-2.031-2.031h-8.241L174.793,278.068z"/>
			</g>
			<circle style="fill:#CDDBE8;" cx="167.75" cy="263.815" r="5.565"/>
		</g>
		<g>
			<g>
				
					<rect x="103.428" y="218.775" transform="matrix(0.9102 -0.4143 0.4143 0.9102 -93.3512 65.5148)" style="fill:#6A6AA5;" width="1.887" height="58.416"/>
				
					<rect x="106.925" y="217.183" transform="matrix(0.9102 -0.4143 0.4143 0.9102 -92.3777 66.8204)" style="fill:#6A6AA5;" width="1.887" height="58.416"/>
			</g>
			<g>
				
					<rect x="103.877" y="185.702" transform="matrix(0.6903 0.7235 -0.7235 0.6903 180.5114 -12.4691)" style="fill:#6A6AA5;" width="1.887" height="37.839"/>
				
					<rect x="106.529" y="188.482" transform="matrix(0.6903 0.7235 -0.7235 0.6903 183.3358 -13.5299)" style="fill:#6A6AA5;" width="1.887" height="37.839"/>
			</g>
			<path style="fill:#7A79B9;" d="M136.794,271.159h-32.504c-0.6,0-1.087,0.487-1.087,1.087v5.822h40.5
				C143.703,274.252,140.61,271.159,136.794,271.159z"/>
			<path style="fill:#6A6AA5;" d="M103.203,278.068h40.5c0-0.752-0.124-1.474-0.346-2.152h-40.154V278.068z"/>
			<g>
				<path style="fill:#7A79B9;" d="M157.224,183.78l-36.626,5.204l0.714,5.028l41.654-5.918
					C162.571,185.316,160,183.385,157.224,183.78z"/>
				<path style="fill:#6A6AA5;" d="M121.312,194.011l41.654-5.918c-0.078-0.547-0.243-1.06-0.474-1.53l-41.402,5.882
					L121.312,194.011z"/>
			</g>
			<g>
				<path style="fill:#7A79B9;" d="M128.662,267.125h-17.875c-1.381,0-2.5,1.119-2.5,2.5v1.534h22.875v-1.534
					C131.162,268.244,130.042,267.125,128.662,267.125z"/>
				<rect x="108.287" y="269.917" style="fill:#6A6AA5;" width="22.875" height="1.242"/>
			</g>
			<circle style="fill:#6A6AA5;" cx="93.249" cy="218.796" r="5.629"/>
			<path style="fill:#6A6AA5;" d="M125.714,191.722c-0.087,2.435-2.132,4.339-4.567,4.252c-2.435-0.087-4.339-2.132-4.252-4.567
				s2.132-4.339,4.567-4.252C123.897,187.242,125.801,189.287,125.714,191.722z"/>
		</g>
		<g>
			<g>
				
					<rect x="75.482" y="311.495" transform="matrix(-0.9777 0.2101 -0.2101 -0.9777 236.2317 692.8908)" style="fill:#ECF3FA;" width="11.647" height="95"/>
				<path style="fill:#CDDBE8;" d="M65.631,313.78c0.266,1.237,3.03,1.693,6.175,1.017c3.144-0.676,5.478-2.227,5.212-3.464
					c-0.266-1.237-3.031-1.693-6.175-1.017C67.698,310.991,65.365,312.542,65.631,313.78z"/>
				
					<rect x="82.879" y="310.96" transform="matrix(0.9777 -0.2102 0.2102 0.9777 -73.4618 25.6159)" style="fill:#CDDBE8;" width="1.835" height="95"/>
			</g>
			<g>
				
					<rect x="73.351" y="319.25" transform="matrix(-0.9363 0.3512 -0.3512 -0.9363 282.0963 682.3401)" style="fill:#ECF3FA;" width="11.647" height="95"/>
				<path style="fill:#CDDBE8;" d="M57.042,324.32c0.444,1.185,3.246,1.23,6.257,0.101c3.011-1.129,5.092-3.006,4.648-4.191
					c-0.444-1.185-3.246-1.23-6.257-0.101C58.678,321.259,56.597,323.135,57.042,324.32z"/>
				
					<rect x="80.643" y="318.355" transform="matrix(0.9363 -0.3512 0.3512 0.9363 -123.2893 51.9466)" style="fill:#CDDBE8;" width="1.835" height="95"/>
			</g>
			<g>
				
					<rect x="61.609" y="312.252" transform="matrix(-0.9112 0.4119 -0.4119 -0.9112 277.0643 659.7911)" style="fill:#ECF3FA;" width="11.647" height="95"/>
				<path style="fill:#CDDBE8;" d="M42.56,318.868c0.521,1.153,3.32,1.014,6.25-0.311c2.931-1.325,4.884-3.334,4.362-4.487
					c-0.521-1.153-3.32-1.014-6.25,0.311C43.992,315.706,42.038,317.715,42.56,318.868z"/>
				
					<rect x="68.836" y="311.203" transform="matrix(0.9112 -0.4119 0.4119 0.9112 -141.562 60.5773)" style="fill:#CDDBE8;" width="1.835" height="95"/>
			</g>
			<path style="fill:#7A79B9;" d="M61.157,364.994V418.1c0,1.087,0.881,1.968,1.968,1.968h38.02c1.087,0,1.968-0.881,1.968-1.968
				v-53.106H61.157z"/>
			<path style="fill:#6464A0;" d="M103.647,361.985H60.623c-0.581,0-1.052,0.471-1.052,1.052v0.905c0,0.581,0.471,1.052,1.052,1.052
				h43.024c0.581,0,1.052-0.471,1.052-1.052v-0.905C104.699,362.456,104.228,361.985,103.647,361.985z"/>
		</g>
		<path style="fill:#6C6CA8;" d="M63.157,369.49v48.61c0,1.087,0.881,1.968,1.968,1.968h21.213L63.157,369.49z"/>
		<g>
			<path style="fill:#525289;" d="M415.609,346.61h-72.113c-2.548,0-4.615,2.066-4.615,4.615c0,2.549,2.066,4.615,4.615,4.615h1.247
				c0.334,1.818,1.92,3.199,3.835,3.199h61.948c1.915,0,3.501-1.38,3.835-3.199h1.247c2.549,0,4.615-2.066,4.615-4.615
				C420.224,348.676,418.158,346.61,415.609,346.61z"/>
			<path style="fill:#525289;" d="M417.38,409.742l4.967,4.356h3.501v-7.939C425.848,406.159,421.777,405.263,417.38,409.742z"/>
			<path style="fill:#525289;" d="M421.638,396.466h-87.913c-1.583,0-2.867,1.284-2.867,2.867v4.37c0,1.583,1.284,2.867,2.867,2.867
				h87.913c1.583,0,2.867-1.284,2.867-2.867v-4.37C424.505,397.749,423.221,396.466,421.638,396.466z"/>
			<path style="fill:#F16679;" d="M411.258,338.829h-84.41c-3.423,0-6.198,2.775-6.198,6.198l0,0c0,3.423,2.775,6.198,6.198,6.198
				h84.41c3.423,0,6.198-2.775,6.198-6.198C417.455,341.604,414.681,338.829,411.258,338.829z"/>
			<path style="fill:#F16679;" d="M444.605,260.59c-1.015-11.472-10.65-20.468-22.386-20.468h-52.645
				c-10.944,0-20.105,9.33-22.474,22.474l-4.27,24.627c-1.372,8.228,1.731,16.707,8.411,21.703c3.75,2.804,8.404,4.465,13.447,4.465
				h52.645c10.672,0,21.054-9.83,22.474-22.474l4.635-26.819C444.636,262.94,444.708,261.76,444.605,260.59z"/>
			<path style="fill:#F8787D;" d="M451.608,260.59c-1.015-11.472-10.65-20.468-22.386-20.468h-52.645
				c-10.944,0-20.105,9.33-22.474,22.474l-4.27,24.627c-1.372,8.228,1.731,16.707,8.411,21.703c3.75,2.804,8.404,4.465,13.447,4.465
				h52.645c10.672,0,21.054-9.83,22.474-22.474l4.635-26.819C451.639,262.94,451.711,261.76,451.608,260.59z"/>
			<rect x="372.65" y="352.853" style="fill:#525289;" width="10.063" height="43.612"/>
			<ellipse style="fill:#525289;" cx="424.505" cy="413.812" rx="6.427" ry="6.256"/>
			<path style="fill:#F8787D;" d="M428.109,338.829h-84.41c-3.423,0-6.197,2.775-6.197,6.198l0,0c0,3.423,2.775,6.198,6.197,6.198
				h84.41c3.423,0,6.198-2.775,6.198-6.198C434.307,341.604,431.532,338.829,428.109,338.829z"/>
			<path style="fill:#6464A0;" d="M404.784,286.069h-10.182c-1.474,0-2.668,1.194-2.668,2.668l-9.221,64.983
				c0,1.473,1.194,2.668,2.668,2.668h10.182c1.474,0,2.668-1.195,2.668-2.668l9.221-64.983
				C407.452,287.263,406.258,286.069,404.784,286.069z"/>
			<path style="fill:#7A79B9;" d="M405.759,286.069h-7.965c-1.474,0-2.668,1.194-2.668,2.668l-9.221,64.983
				c0,1.473,1.195,2.668,2.668,2.668h7.965c1.474,0,2.668-1.195,2.668-2.668l9.221-64.983
				C408.427,287.263,407.232,286.069,405.759,286.069z"/>
			<path style="fill:#6464A0;" d="M424.505,404.935c-4.999,0-9.066,3.982-9.066,8.877c0,0.761,0.109,1.495,0.293,2.2h2.034
				c-0.238-0.692-0.373-1.43-0.373-2.2c0-3.823,3.184-6.923,7.112-6.923s7.112,3.1,7.112,6.923h1.954
				C433.571,408.917,429.504,404.935,424.505,404.935z"/>
			<path style="fill:#525289;" d="M337.647,409.742l-4.967,4.356h-3.501v-7.939C329.179,406.159,333.25,405.263,337.647,409.742z"/>
			<path style="fill:#525289;" d="M324.095,413.812c0,3.455,2.878,6.257,6.427,6.257c3.55,0,6.427-2.801,6.427-6.257
				c0-3.455-2.878-6.257-6.427-6.257C326.973,407.555,324.095,410.356,324.095,413.812z"/>
			<path style="fill:#6464A0;" d="M330.522,404.935c4.999,0,9.066,3.982,9.066,8.877c0,0.761-0.109,1.495-0.293,2.2h-2.034
				c0.238-0.692,0.373-1.43,0.373-2.2c0-3.823-3.184-6.923-7.112-6.923c-3.928,0-7.112,3.1-7.112,6.923h-1.954
				C321.456,408.917,325.523,404.935,330.522,404.935z"/>
			<path style="fill:#525289;" d="M384.806,409.742l-4.967,4.356h-3.501v-7.939C376.338,406.159,380.409,405.263,384.806,409.742z"
				/>
			<ellipse style="fill:#525289;" cx="377.682" cy="413.812" rx="6.427" ry="6.256"/>
			<path style="fill:#6464A0;" d="M377.682,404.935c4.999,0,9.066,3.982,9.066,8.877c0,0.761-0.109,1.495-0.293,2.2h-2.034
				c0.238-0.692,0.373-1.43,0.373-2.2c0-3.823-3.184-6.923-7.112-6.923s-7.112,3.1-7.112,6.923h-1.954
				C368.615,408.917,372.682,404.935,377.682,404.935z"/>
		</g>
	</g>
</g>
<!-- <g id="DESIGNED_BY_FREEPIK">
	<g>
		<g>
			<g id="XMLID_225_">
				<g id="XMLID_244_">
					<path id="XMLID_252_" style="fill:#161616;" d="M259.557,472.254c-0.408,0.418-0.759,0.881-1.047,1.373l-0.44-0.227
						c-0.065-0.281-0.331-0.477-0.625-0.441c-0.313,0.037-0.536,0.32-0.501,0.633c0.037,0.315,0.322,0.537,0.634,0.5
						c0.064-0.006,0.12-0.023,0.174-0.049l0.427,0.223c-0.236,0.523-0.408,1.076-0.51,1.648l0.708,0.125
						c0.216-1.236,0.804-2.371,1.693-3.285L259.557,472.254z"/>
					<path id="XMLID_251_" style="fill:#161616;" d="M264.749,470.076c-0.163,0-0.323,0.006-0.482,0.016l-0.07-0.592
						c0.178-0.143,0.281-0.369,0.251-0.611c-0.042-0.371-0.38-0.637-0.752-0.594c-0.371,0.045-0.637,0.381-0.593,0.754
						c0.027,0.24,0.18,0.436,0.383,0.533l0.068,0.59c-0.675,0.109-1.327,0.314-1.947,0.611l0.309,0.646
						c0.885-0.422,1.836-0.637,2.834-0.637c0.469,0,0.939,0.049,1.395,0.148l0.151-0.701
						C265.789,470.131,265.27,470.076,264.749,470.076z"/>
					<path id="XMLID_250_" style="fill:#161616;" d="M270.993,472.484c0.314-0.037,0.536-0.322,0.497-0.635
						c-0.037-0.313-0.321-0.535-0.636-0.498c-0.291,0.037-0.506,0.287-0.5,0.576l-0.394,0.344c-0.395-0.406-0.843-0.77-1.332-1.078
						l-0.383,0.607c1.073,0.676,1.912,1.633,2.426,2.766l0.652-0.295c-0.236-0.524-0.536-1.014-0.891-1.461l0.381-0.332
						C270.871,472.49,270.933,472.494,270.993,472.484z"/>
					<path id="XMLID_249_" style="fill:#161616;" d="M264.231,479.732c-0.366,0.022-0.733,0.033-1.096,0.033
						c-0.831,0-1.639-0.059-2.345-0.17c-0.369-0.059-0.8-0.147-1.2-0.277c0.99,1.762,2.902,2.957,5.097,2.957
						c2.701,0,4.978-1.813,5.628-4.26c-0.645,0.426-1.425,0.781-2.326,1.061C266.873,479.426,265.573,479.652,264.231,479.732z"/>
					<path id="XMLID_245_" style="fill:#161616;" d="M264.749,471.51c-3.171,0-5.752,2.523-5.752,5.623
						c0,0.402,0.045,0.803,0.13,1.191c0.637,0.459,2.56,0.844,5.058,0.693c2.725-0.166,5.011-0.906,6.311-2.043
						c-0.003-0.184-0.018-0.369-0.042-0.549C270.096,473.623,267.642,471.51,264.749,471.51z M262.705,477.672
						c-0.964,0-1.749-0.785-1.749-1.748c0-0.967,0.785-1.752,1.749-1.752c0.965,0,1.75,0.785,1.75,1.752
						C264.455,476.887,263.67,477.672,262.705,477.672z M267.188,476.815c-0.709,0-1.288-0.578-1.288-1.287
						c0-0.709,0.579-1.287,1.288-1.287c0.71,0,1.286,0.578,1.286,1.287C268.474,476.236,267.897,476.815,267.188,476.815z"/>
				</g>
				<path id="XMLID_242_" style="fill:#161616;" d="M279.888,473.277c-0.279-0.111-0.763-0.293-1.308-0.227
					c-0.521,0.066-0.799,0.322-0.799,0.953v0.818h2.108v1.625h-2.108v5.16h-1.827v-5.16h-1.268v-1.625h1.268v-0.84
					c0-1.59,0.847-2.633,2.43-2.633c0.607,0,1.094,0.115,1.504,0.291V473.277z"/>
				<path id="XMLID_240_" style="fill:#161616;" d="M284.335,476.428c-0.167-0.027-0.338-0.043-0.497-0.043
					c-0.847,0-1.429,0.518-1.429,1.525v3.697h-1.827v-6.785h1.772v0.742c0.427-0.637,1.077-0.924,1.91-0.924
					c0.392,0,0.802,0.121,1.036,0.318L284.335,476.428z"/>
				<path id="XMLID_237_" style="fill:#161616;" d="M291.588,478.205c0,0.209-0.015,0.461-0.035,0.615h-4.809
					c0.195,0.98,0.881,1.408,1.742,1.408c0.589,0,1.225-0.238,1.716-0.652l1.072,1.176c-0.771,0.709-1.752,1.031-2.892,1.031
					c-2.08,0-3.523-1.416-3.523-3.551c0-2.135,1.4-3.592,3.431-3.592C290.243,474.641,291.581,476.09,291.588,478.205z
					 M286.751,477.574h3.003c-0.168-0.867-0.693-1.357-1.477-1.357C287.416,476.217,286.912,476.734,286.751,477.574z"/>
				<path id="XMLID_234_" style="fill:#161616;" d="M298.829,478.205c0,0.209-0.015,0.461-0.035,0.615h-4.811
					c0.196,0.98,0.884,1.408,1.744,1.408c0.588,0,1.225-0.238,1.715-0.652l1.071,1.176c-0.771,0.709-1.749,1.031-2.892,1.031
					c-2.08,0-3.522-1.416-3.522-3.551c0-2.135,1.4-3.592,3.432-3.592C297.483,474.641,298.821,476.09,298.829,478.205z
					 M293.99,477.574h3.004c-0.168-0.867-0.694-1.357-1.477-1.357C294.655,476.217,294.15,476.734,293.99,477.574z"/>
				<path id="XMLID_231_" style="fill:#161616;" d="M306.724,478.211c0,2.039-1.415,3.572-3.285,3.572
					c-0.909,0-1.554-0.357-1.995-0.883v3.508h-1.82v-9.586h1.785v0.75c0.441-0.553,1.092-0.932,2.022-0.932
					C305.309,474.641,306.724,476.174,306.724,478.211z M301.352,478.211c0,1.072,0.708,1.871,1.744,1.871
					c1.077,0,1.75-0.834,1.75-1.871c0-1.035-0.673-1.869-1.75-1.869C302.06,476.342,301.352,477.141,301.352,478.211z"/>
				<path id="XMLID_228_" style="fill:#161616;" d="M309.659,472.603c0,0.658-0.512,1.162-1.169,1.162
					c-0.66,0-1.163-0.504-1.163-1.162c0-0.658,0.503-1.176,1.163-1.176C309.147,471.428,309.659,471.945,309.659,472.603z
					 M309.413,481.607h-1.827v-6.785h1.827V481.607z"/>
				<path id="XMLID_226_" style="fill:#161616;" d="M312.462,477.238l2.557-2.416h2.239l-3.29,3.193l3.313,3.592h-2.248l-2.57-2.744
					v2.744h-1.827v-10.082h1.827V477.238z"/>
			</g>
			<g>
				<path style="fill:#161616;" d="M187.957,481.547v-0.998c-0.499,0.68-1.315,1.164-2.258,1.164c-1.746,0-2.979-1.33-2.979-3.506
					c0-2.135,1.22-3.52,2.979-3.52c0.9,0,1.718,0.443,2.258,1.178v-3.561h1.04v9.242H187.957z M187.957,479.73v-3.033
					c-0.374-0.582-1.178-1.082-2.009-1.082c-1.344,0-2.147,1.109-2.147,2.592c0,1.483,0.804,2.576,2.147,2.576
					C186.779,480.783,187.583,480.313,187.957,479.73z"/>
				<path style="fill:#161616;" d="M190.341,478.193c0-1.939,1.386-3.506,3.298-3.506c2.022,0,3.214,1.58,3.214,3.588v0.264h-5.417
					c0.083,1.262,0.97,2.314,2.41,2.314c0.763,0,1.538-0.305,2.064-0.846l0.499,0.68c-0.665,0.664-1.565,1.025-2.66,1.025
					C191.768,481.713,190.341,480.285,190.341,478.193z M193.624,475.547c-1.427,0-2.134,1.205-2.189,2.23h4.393
					C195.813,476.779,195.148,475.547,193.624,475.547z"/>
				<path style="fill:#161616;" d="M197.601,480.66l0.541-0.748c0.443,0.512,1.288,0.955,2.202,0.955c1.026,0,1.58-0.484,1.58-1.15
					c0-1.621-4.143-0.623-4.143-3.103c0-1.039,0.9-1.926,2.493-1.926c1.137,0,1.94,0.43,2.482,0.969l-0.485,0.721
					c-0.401-0.484-1.136-0.844-1.996-0.844c-0.914,0-1.481,0.457-1.481,1.053c0,1.469,4.142,0.498,4.142,3.104
					c0,1.123-0.9,2.023-2.633,2.023C199.208,481.713,198.28,481.381,197.601,480.66z"/>
				<path style="fill:#161616;" d="M204.1,473.205c0-0.389,0.318-0.707,0.692-0.707c0.388,0,0.707,0.318,0.707,0.707
					c0,0.387-0.319,0.691-0.707,0.691C204.418,473.897,204.1,473.592,204.1,473.205z M204.279,481.547v-6.693h1.04v6.693H204.279z"
					/>
				<path style="fill:#161616;" d="M207.037,483.264l0.525-0.775c0.555,0.666,1.22,0.914,2.176,0.914
					c1.108,0,2.147-0.539,2.147-2.008v-0.957c-0.484,0.68-1.302,1.191-2.244,1.191c-1.746,0-2.979-1.303-2.979-3.463
					c0-2.148,1.22-3.478,2.979-3.478c0.9,0,1.704,0.443,2.244,1.178v-1.012h1.04v6.498c0,2.217-1.553,2.91-3.188,2.91
					C208.602,484.262,207.826,484.039,207.037,483.264z M211.886,479.621v-2.924c-0.359-0.582-1.163-1.082-1.995-1.082
					c-1.344,0-2.147,1.066-2.147,2.551c0,1.469,0.804,2.549,2.147,2.549C210.723,480.715,211.526,480.203,211.886,479.621z"/>
				<path style="fill:#161616;" d="M219.175,481.547v-4.379c0-1.178-0.597-1.553-1.497-1.553c-0.817,0-1.594,0.5-1.981,1.039v4.893
					h-1.039v-6.693h1.039v0.971c0.471-0.555,1.386-1.137,2.384-1.137c1.399,0,2.134,0.707,2.134,2.162v4.697H219.175z"/>
				<path style="fill:#161616;" d="M221.558,478.193c0-1.939,1.386-3.506,3.298-3.506c2.022,0,3.215,1.58,3.215,3.588v0.264h-5.418
					c0.083,1.262,0.97,2.314,2.41,2.314c0.763,0,1.538-0.305,2.065-0.846l0.498,0.68c-0.665,0.664-1.566,1.025-2.66,1.025
					C222.985,481.713,221.558,480.285,221.558,478.193z M224.841,475.547c-1.427,0-2.134,1.205-2.188,2.23h4.393
					C227.03,476.779,226.365,475.547,224.841,475.547z"/>
				<path style="fill:#161616;" d="M234.25,481.547v-0.998c-0.499,0.68-1.316,1.164-2.259,1.164c-1.746,0-2.98-1.33-2.98-3.506
					c0-2.135,1.22-3.52,2.98-3.52c0.9,0,1.719,0.443,2.259,1.178v-3.561h1.039v9.242H234.25z M234.25,479.73v-3.033
					c-0.375-0.582-1.178-1.082-2.009-1.082c-1.345,0-2.148,1.109-2.148,2.592c0,1.483,0.804,2.576,2.148,2.576
					C233.072,480.783,233.875,480.313,234.25,479.73z"/>
				<path style="fill:#161616;" d="M240.249,481.547v-9.242h1.039v3.561c0.541-0.734,1.345-1.178,2.259-1.178
					c1.745,0,2.979,1.385,2.979,3.52c0,2.176-1.234,3.506-2.979,3.506c-0.942,0-1.76-0.484-2.259-1.164v0.998H240.249z
					 M243.283,480.783c1.358,0,2.162-1.094,2.162-2.576c0-1.482-0.804-2.592-2.162-2.592c-0.817,0-1.635,0.5-1.995,1.082v3.033
					C241.648,480.313,242.466,480.783,243.283,480.783z"/>
				<path style="fill:#161616;" d="M247.662,483.223c0.152,0.07,0.402,0.111,0.567,0.111c0.458,0,0.763-0.152,0.998-0.707
					l0.443-1.012l-2.799-6.762h1.122l2.231,5.486l2.217-5.486h1.136l-3.353,8.051c-0.402,0.969-1.081,1.344-1.968,1.357
					c-0.222,0-0.568-0.041-0.763-0.098L247.662,483.223z"/>
			</g>
		</g>
	</g>
</g> -->
</svg>
