<?xml version="1.0" standalone="no"?>
<!DOCTYPE svg PUBLIC "-//W3C//DTD SVG 20010904//EN"
 "http://www.w3.org/TR/2001/REC-SVG-20010904/DTD/svg10.dtd">
<svg version="1.0" xmlns="http://www.w3.org/2000/svg"
 width="1728.000000pt" height="1728.000000pt" viewBox="0 0 1728.000000 1728.000000"
 preserveAspectRatio="xMidYMid meet">
<metadata>
Created by potrace 1.14, written by Peter Selinger 2001-2017
</metadata>
<g transform="translate(0.000000,1728.000000) scale(0.100000,-0.100000)"
fill="#000000" stroke="none">
<path d="M8860 14690 c0 -19 -7 -20 -174 -20 -165 0 -174 -1 -179 -20 -5 -18
-14 -20 -95 -20 -81 0 -90 -2 -95 -20 -4 -17 -14 -20 -61 -20 -49 0 -56 -2
-56 -20 0 -18 -7 -20 -60 -20 -46 0 -60 -3 -60 -15 0 -8 -14 -17 -35 -21 -19
-3 -35 -12 -35 -19 0 -8 -17 -16 -40 -20 -22 -4 -40 -12 -40 -20 0 -7 -17 -15
-40 -19 -26 -4 -40 -11 -40 -21 0 -8 -9 -15 -20 -15 -13 0 -20 -7 -20 -20 0
-16 -7 -20 -34 -20 -25 0 -35 -5 -39 -20 -4 -17 -14 -20 -61 -20 -41 0 -56 -4
-56 -14 0 -15 -80 -26 -195 -26 -64 0 -73 -2 -78 -20 -4 -17 -14 -20 -61 -20
-42 0 -56 -4 -56 -14 0 -9 -15 -17 -40 -21 -23 -4 -40 -12 -40 -20 0 -7 -9
-15 -20 -18 -11 -3 -20 -12 -20 -21 0 -9 -8 -16 -20 -16 -13 0 -20 -7 -20 -20
0 -13 -7 -20 -20 -20 -13 0 -20 -7 -20 -20 0 -13 -7 -20 -20 -20 -13 0 -20 -7
-20 -20 0 -18 -7 -20 -55 -20 -48 0 -55 -2 -55 -20 0 -18 -7 -20 -55 -20 -40
0 -55 -4 -55 -14 0 -14 -42 -26 -91 -26 -18 0 -29 -5 -29 -14 0 -9 -15 -17
-40 -21 -25 -4 -40 -12 -40 -21 0 -8 -9 -14 -20 -14 -13 0 -20 -7 -20 -20 0
-16 -7 -20 -35 -20 -28 0 -35 -4 -35 -20 0 -17 -7 -20 -40 -20 -33 0 -40 -3
-40 -20 0 -13 -7 -20 -20 -20 -13 0 -20 -7 -20 -20 0 -16 -7 -20 -35 -20 -25
0 -35 -4 -35 -16 0 -9 -9 -18 -20 -21 -11 -3 -20 -12 -20 -19 0 -8 -9 -14 -21
-14 -12 0 -23 -8 -26 -19 -3 -11 -13 -21 -24 -24 -10 -3 -19 -12 -19 -20 0 -8
-9 -17 -20 -20 -11 -3 -20 -12 -20 -21 0 -12 -10 -16 -35 -16 -28 0 -35 -4
-35 -20 0 -13 -7 -20 -20 -20 -16 0 -20 -7 -20 -34 0 -25 -5 -35 -20 -39 -11
-3 -20 -12 -20 -20 0 -8 -9 -17 -20 -20 -12 -3 -20 -14 -20 -26 0 -12 -6 -21
-15 -21 -8 0 -17 -14 -21 -35 -3 -19 -12 -35 -19 -35 -8 0 -16 -17 -20 -40 -4
-23 -12 -40 -20 -40 -7 0 -16 -16 -19 -35 -4 -21 -13 -35 -21 -35 -9 0 -15
-10 -15 -25 0 -18 -5 -25 -20 -25 -13 0 -20 -7 -20 -20 0 -13 -7 -20 -20 -20
-13 0 -20 -7 -20 -20 0 -11 -7 -20 -15 -20 -8 0 -15 -7 -15 -16 0 -9 -9 -18
-20 -21 -11 -3 -20 -12 -20 -19 0 -8 -9 -14 -19 -14 -15 0 -21 -10 -26 -40 -5
-30 -11 -40 -26 -40 -10 0 -19 -7 -19 -15 0 -8 -7 -15 -16 -15 -9 0 -18 -9
-21 -20 -3 -11 -12 -20 -19 -20 -8 0 -14 -9 -14 -20 0 -13 -7 -20 -20 -20 -13
0 -20 -7 -20 -19 0 -10 -9 -21 -20 -24 -15 -4 -20 -14 -20 -41 0 -29 -4 -36
-20 -36 -13 0 -20 -7 -20 -20 0 -13 -7 -20 -20 -20 -13 0 -20 -7 -20 -20 0
-11 -6 -20 -14 -20 -8 0 -17 -15 -20 -35 -4 -19 -13 -35 -20 -35 -8 0 -16 -17
-20 -40 -4 -25 -12 -40 -20 -40 -10 0 -17 -17 -21 -55 -5 -37 -12 -55 -21 -55
-11 0 -14 -21 -14 -100 0 -93 -1 -100 -20 -100 -19 0 -20 -7 -20 -175 0 -168
-1 -175 -20 -175 -18 0 -20 -7 -20 -54 0 -45 -3 -54 -20 -59 -17 -4 -20 -14
-20 -61 0 -41 -4 -56 -14 -56 -14 0 -26 -42 -26 -91 0 -19 -5 -29 -15 -29 -13
0 -15 -37 -15 -273 0 -331 -7 -457 -26 -457 -11 0 -14 -41 -14 -214 0 -206 1
-214 20 -219 15 -4 20 -13 18 -34 -5 -72 2 -123 17 -123 13 0 15 -34 15 -242
0 -342 9 -528 27 -528 8 0 13 -11 13 -29 0 -49 12 -91 26 -91 10 0 14 -15 14
-56 0 -47 3 -57 20 -61 19 -5 20 -14 20 -155 0 -141 1 -150 20 -155 18 -5 20
-14 20 -79 0 -67 -2 -74 -20 -74 -26 0 -26 -30 0 -37 15 -4 20 -14 20 -39 0
-22 -5 -34 -13 -34 -16 0 -27 -156 -27 -392 0 -119 -3 -148 -14 -148 -16 0
-26 -43 -26 -111 0 -37 -4 -49 -15 -49 -10 0 -15 10 -15 29 0 49 -12 91 -26
91 -8 0 -14 10 -14 24 0 45 -13 86 -26 86 -9 0 -14 12 -14 33 0 46 -10 77 -25
77 -7 0 -15 18 -19 40 -4 26 -11 40 -21 40 -9 0 -15 9 -15 21 0 12 -8 23 -20
26 -15 4 -20 14 -20 39 0 27 -4 34 -20 34 -13 0 -20 7 -20 20 0 13 -7 20 -20
20 -13 0 -20 7 -20 20 0 13 -7 20 -20 20 -11 0 -20 6 -20 14 0 15 -30 26 -76
26 -27 0 -33 -4 -37 -27 -3 -15 -3 -51 0 -80 5 -43 9 -53 24 -53 11 0 19 -7
19 -15 0 -8 7 -15 16 -15 9 0 18 -9 21 -20 3 -12 17 -22 38 -26 21 -4 35 -13
38 -25 3 -10 12 -19 21 -19 9 0 16 -7 16 -15 0 -8 9 -15 20 -15 15 0 20 -7 20
-25 0 -15 6 -25 14 -25 15 0 26 -21 26 -51 0 -10 6 -19 14 -19 16 0 26 -30 26
-77 0 -21 5 -33 14 -33 13 0 26 -78 26 -161 0 -27 4 -39 14 -39 11 0 16 -26
21 -115 6 -88 11 -115 21 -115 10 0 14 -13 14 -43 0 -114 13 -227 26 -227 11
0 14 -35 14 -177 0 -98 3 -229 7 -291 6 -110 6 -113 -15 -119 -12 -3 -22 -12
-22 -19 0 -11 -19 -14 -80 -14 -64 0 -80 3 -80 15 0 8 -9 15 -20 15 -11 0 -20
-7 -20 -15 0 -8 9 -15 20 -15 13 0 20 -7 20 -20 0 -17 6 -20 33 -19 17 2 87 2
155 1 l122 -2 0 -60 c0 -53 2 -60 20 -60 18 0 20 -7 20 -75 0 -57 3 -75 14
-75 18 0 26 -31 26 -102 0 -43 4 -58 14 -58 17 0 26 -31 26 -97 0 -39 4 -53
14 -53 10 0 16 -22 21 -80 5 -55 11 -80 20 -80 8 0 15 -24 20 -75 5 -55 11
-75 21 -75 10 0 14 -14 14 -56 0 -47 3 -57 20 -61 17 -4 20 -14 20 -58 0 -44
3 -54 20 -58 15 -4 20 -14 20 -41 0 -24 5 -36 14 -36 14 0 26 -42 26 -91 0
-19 5 -29 15 -29 10 0 17 -14 21 -40 4 -23 12 -40 20 -40 7 0 16 -16 20 -35 3
-20 12 -35 20 -35 9 0 14 -12 14 -36 0 -27 5 -37 20 -41 15 -4 20 -14 20 -39
0 -27 4 -34 20 -34 15 0 20 -7 20 -25 0 -18 5 -25 20 -25 16 0 20 -7 20 -35 0
-28 4 -35 20 -35 13 0 20 -7 20 -20 0 -11 7 -20 15 -20 10 0 17 -14 21 -40 5
-30 11 -40 25 -40 12 0 19 -7 19 -20 0 -11 7 -20 15 -20 8 0 15 -7 15 -15 0
-8 9 -15 20 -15 13 0 20 -7 20 -20 0 -13 7 -20 20 -20 13 0 20 -7 20 -20 0
-13 7 -20 20 -20 13 0 20 -7 20 -20 0 -13 7 -20 20 -20 13 0 20 -7 20 -20 0
-13 7 -20 20 -20 13 0 20 -7 20 -20 0 -13 7 -20 20 -20 13 0 20 -7 20 -20 0
-13 7 -20 20 -20 13 0 20 -7 20 -20 0 -11 7 -20 15 -20 8 0 15 -7 15 -15 0 -8
9 -15 20 -15 13 0 20 -7 20 -20 0 -13 7 -20 20 -20 13 0 20 -7 20 -19 0 -15
10 -21 40 -26 25 -4 40 -12 40 -21 0 -8 9 -14 20 -14 13 0 20 -7 20 -20 0 -13
7 -20 20 -20 13 0 20 -7 20 -20 0 -13 7 -20 20 -20 13 0 20 -7 20 -20 0 -11 7
-20 15 -20 8 0 15 -6 15 -14 0 -9 15 -17 40 -21 25 -4 40 -12 40 -21 0 -8 9
-14 20 -14 13 0 20 -7 20 -20 0 -13 7 -20 20 -20 13 0 20 -7 20 -20 0 -16 7
-20 35 -20 28 0 35 -4 35 -20 0 -15 7 -20 25 -20 18 0 25 -5 25 -20 0 -11 6
-20 14 -20 7 0 16 -9 19 -20 4 -15 14 -20 41 -20 29 0 36 -4 36 -20 0 -13 7
-20 20 -20 11 0 20 -6 20 -14 0 -9 15 -17 40 -21 25 -4 40 -12 40 -21 0 -8 7
-14 16 -14 9 0 18 -9 21 -20 4 -15 14 -20 39 -20 27 0 34 -4 34 -20 0 -17 7
-20 40 -20 33 0 40 -3 40 -20 0 -17 7 -20 40 -20 33 0 40 -3 40 -20 0 -17 7
-20 40 -20 27 0 40 -4 40 -14 0 -16 30 -26 78 -26 20 0 32 -5 32 -14 0 -16 52
-28 87 -20 19 5 25 2 30 -15 5 -18 13 -21 59 -21 47 0 54 -2 54 -20 0 -17 7
-20 49 -20 68 0 111 -10 111 -26 0 -11 18 -14 73 -14 85 0 117 -7 117 -26 0
-11 35 -14 191 -14 182 0 191 -1 196 -20 5 -18 14 -20 104 -20 92 0 99 1 99
20 0 19 7 20 210 20 170 0 210 3 210 14 0 14 67 26 153 26 34 0 47 4 47 14 0
10 20 16 75 21 50 5 75 12 75 20 0 15 31 25 83 25 26 0 37 4 37 15 0 8 14 17
35 21 20 3 35 12 35 20 0 9 11 14 29 14 49 0 91 12 91 26 0 9 12 14 35 14 28
0 35 4 35 20 0 17 7 20 40 20 33 0 40 3 40 20 0 17 7 20 40 20 33 0 40 3 40
20 0 16 7 20 34 20 25 0 35 5 39 20 3 12 14 20 26 20 12 0 21 6 21 15 0 10 14
17 40 21 24 4 40 12 40 20 0 9 12 14 35 14 28 0 35 4 35 20 0 16 7 20 36 20
27 0 37 5 41 20 3 11 14 20 24 20 12 0 19 7 19 20 0 16 7 20 35 20 28 0 35 4
35 20 0 15 7 20 25 20 15 0 25 6 25 15 0 8 14 17 35 21 25 4 35 11 35 25 0 12
7 19 20 19 11 0 20 6 20 14 0 9 15 17 40 21 25 4 40 12 40 21 0 8 7 14 16 14
9 0 18 9 21 20 4 15 14 20 39 20 27 0 34 4 34 20 0 13 7 20 20 20 13 0 20 7
20 20 0 13 7 20 20 20 13 0 20 7 20 20 0 13 7 20 20 20 11 0 20 7 20 15 0 8 7
15 16 15 9 0 18 9 21 20 3 11 12 20 20 20 8 0 17 9 20 20 3 11 12 20 20 20 8
0 17 9 20 20 3 11 12 20 20 20 8 0 17 9 20 20 3 11 12 20 19 20 8 0 14 9 14
20 0 13 7 20 20 20 13 0 20 7 20 20 0 13 7 20 20 20 13 0 20 7 20 20 0 13 7
20 20 20 16 0 20 7 20 34 0 25 5 35 20 39 11 3 20 12 20 20 0 8 9 17 20 20 11
3 20 12 20 21 0 9 7 16 15 16 11 0 15 11 15 40 0 33 3 40 20 40 17 0 20 7 20
40 0 33 3 40 20 40 17 0 20 7 20 40 0 33 3 40 20 40 16 0 20 7 20 34 0 25 5
35 20 39 15 4 20 14 20 41 0 29 4 36 20 36 17 0 20 7 20 40 0 29 4 40 15 40
11 0 15 11 15 36 0 27 5 37 20 41 15 4 20 14 20 39 0 27 4 34 20 34 18 0 20 7
20 60 0 53 2 60 20 60 18 0 20 7 20 56 0 47 3 57 20 61 17 5 20 14 20 59 0 47
2 54 20 54 17 0 20 7 20 40 0 33 3 40 20 40 18 0 20 7 20 60 0 46 3 60 15 60
8 0 17 14 21 35 3 19 12 35 19 35 8 0 15 22 19 60 l7 60 54 0 c48 0 55 -2 55
-20 0 -19 7 -20 95 -20 88 0 95 1 95 20 0 18 -7 20 -75 20 -68 0 -75 2 -75 20
0 13 -7 20 -20 20 -18 0 -20 7 -20 76 0 67 2 76 20 81 18 5 20 14 20 75 0 61
2 71 20 75 18 5 20 14 20 99 0 87 1 94 20 94 18 0 20 7 20 60 0 44 4 60 14 60
16 0 26 30 26 78 0 21 5 32 14 32 9 0 17 15 21 40 4 23 12 40 20 40 9 0 15 24
20 80 5 58 11 80 21 80 10 0 14 13 14 44 0 63 11 106 26 106 9 0 14 12 14 33
0 47 10 77 26 77 10 0 14 13 14 40 0 33 3 40 20 40 17 0 20 7 20 40 0 33 3 40
20 40 13 0 20 7 20 20 0 13 7 20 20 20 11 0 20 7 20 15 0 8 14 17 35 21 19 3
35 12 35 19 0 8 17 16 40 20 25 4 40 12 40 21 0 8 9 14 20 14 13 0 20 7 20 20
0 17 7 20 40 20 29 0 40 -4 40 -15 0 -8 7 -15 15 -15 12 0 15 17 15 95 l0 95
-35 0 c-28 0 -35 4 -35 20 0 11 -6 20 -12 20 -30 0 -58 -13 -58 -26 0 -8 -10
-14 -25 -14 -18 0 -25 -5 -25 -20 0 -13 -7 -20 -20 -20 -11 0 -20 -7 -20 -15
0 -8 -7 -15 -16 -15 -9 0 -18 -9 -21 -20 -3 -11 -12 -20 -20 -20 -8 0 -17 -9
-20 -20 -3 -11 -12 -20 -19 -20 -8 0 -14 -9 -14 -20 0 -13 -7 -20 -20 -20 -15
0 -20 -7 -20 -25 0 -18 -5 -25 -20 -25 -16 0 -20 -7 -20 -35 0 -28 -4 -35 -20
-35 -13 0 -20 -7 -20 -20 0 -11 -6 -20 -14 -20 -9 0 -17 -15 -21 -40 -5 -30
-11 -40 -26 -40 -12 0 -19 -7 -19 -20 0 -11 -7 -20 -15 -20 -13 0 -15 33 -15
235 0 202 2 235 15 235 12 0 15 16 17 78 1 42 2 100 2 127 3 117 6 135 21 135
10 0 15 10 15 29 0 49 12 91 26 91 10 0 14 15 14 53 0 66 9 97 26 97 9 0 14
12 14 38 0 52 10 82 26 82 10 0 14 13 14 40 0 33 3 40 20 40 18 0 20 7 20 54
0 45 3 54 20 59 18 5 20 14 20 81 0 58 3 76 14 76 20 0 26 46 26 186 0 104 2
124 15 124 12 0 15 15 15 74 0 112 11 196 26 196 7 0 15 18 19 40 4 23 12 40
20 40 7 0 16 16 19 35 4 20 13 35 21 35 10 0 16 18 21 60 4 41 11 60 20 60 10
0 14 16 14 60 0 53 2 60 20 60 19 0 20 7 20 114 0 105 1 114 20 119 18 5 20
14 20 117 0 103 -2 112 -20 117 -15 4 -20 14 -20 38 0 24 5 34 20 38 18 4 20
14 20 75 0 61 2 70 20 75 22 6 25 29 14 136 -5 41 -11 61 -20 61 -10 0 -14 15
-14 56 0 47 -3 57 -20 61 -15 4 -20 14 -20 39 0 27 -4 34 -20 34 -19 0 -20 7
-20 114 0 105 1 114 20 119 19 5 20 14 20 141 0 129 -1 136 -20 136 -18 0 -20
7 -20 75 0 68 -2 75 -20 75 -17 0 -20 7 -20 40 0 33 -3 40 -20 40 -17 0 -20 7
-20 40 0 28 -4 40 -15 40 -8 0 -17 14 -21 35 -3 19 -12 35 -19 35 -8 0 -16 17
-20 40 -4 25 -12 40 -21 40 -8 0 -14 9 -14 20 0 13 -7 20 -20 20 -13 0 -20 7
-20 20 0 13 -7 20 -20 20 -13 0 -20 7 -20 20 0 13 -7 20 -20 20 -13 0 -20 7
-20 20 0 13 -7 20 -20 20 -13 0 -20 7 -20 20 0 11 -6 20 -14 20 -7 0 -16 9
-19 20 -3 11 -12 20 -21 20 -9 0 -16 7 -16 15 0 9 -9 15 -21 15 -12 0 -23 8
-26 20 -3 11 -14 20 -24 20 -12 0 -19 7 -19 20 0 11 -7 20 -15 20 -11 0 -15
11 -15 36 0 27 -5 37 -20 41 -11 3 -20 14 -20 24 0 12 -7 19 -20 19 -16 0 -20
7 -20 35 0 28 -4 35 -20 35 -13 0 -20 7 -20 19 0 10 -9 21 -20 24 -11 3 -20
12 -20 21 0 9 -8 16 -20 16 -13 0 -20 7 -20 20 0 13 -7 20 -20 20 -13 0 -20 7
-20 20 0 16 -7 20 -35 20 -28 0 -35 4 -35 20 0 13 -7 20 -20 20 -13 0 -20 7
-20 20 0 17 -7 20 -40 20 -33 0 -40 3 -40 20 0 11 -7 20 -15 20 -8 0 -15 6
-15 14 0 8 -16 16 -40 20 -24 4 -40 12 -40 20 0 8 -16 16 -40 20 -26 4 -40 11
-40 21 0 8 -9 15 -20 15 -13 0 -20 7 -20 20 0 13 -7 20 -20 20 -13 0 -20 7
-20 20 0 13 -7 20 -20 20 -13 0 -20 7 -20 20 0 16 -7 20 -34 20 -25 0 -35 5
-39 20 -4 15 -14 20 -41 20 -24 0 -36 5 -36 14 0 21 -47 26 -260 26 l-197 0
-6 143 c-4 78 -7 172 -7 208 0 58 -3 67 -20 72 -18 5 -20 14 -20 81 0 60 -3
76 -15 76 -8 0 -17 14 -21 35 -3 19 -12 35 -19 35 -8 0 -16 17 -20 40 -4 23
-12 40 -20 40 -8 0 -16 17 -20 40 -4 25 -12 40 -21 40 -8 0 -14 9 -14 20 0 13
-7 20 -20 20 -13 0 -20 7 -20 20 0 13 -7 20 -20 20 -16 0 -20 7 -20 34 0 31
-3 34 -35 40 -21 4 -35 13 -35 21 0 8 -9 15 -20 15 -13 0 -20 7 -20 20 0 13
-7 20 -20 20 -13 0 -20 7 -20 20 0 17 -7 20 -40 20 -33 0 -40 3 -40 20 0 13
-7 20 -20 20 -16 0 -20 7 -20 35 0 28 -4 35 -20 35 -13 0 -20 7 -20 19 0 10
-9 21 -20 24 -12 3 -20 14 -20 26 0 12 -6 21 -15 21 -8 0 -15 7 -15 15 0 8 -9
15 -20 15 -13 0 -20 7 -20 20 0 15 -7 20 -25 20 -18 0 -25 5 -25 20 0 16 -7
20 -35 20 -28 0 -35 4 -35 20 0 16 -7 20 -34 20 -25 0 -35 5 -39 20 -4 15 -14
20 -41 20 -24 0 -36 5 -36 14 0 14 -42 26 -91 26 -18 0 -29 5 -29 14 0 9 -15
17 -40 21 -25 4 -40 12 -40 21 0 9 -11 14 -32 14 -48 0 -78 10 -78 26 0 11
-19 14 -80 14 -73 0 -80 2 -80 20 0 19 -7 20 -229 20 -220 0 -229 1 -234 20
-3 11 -12 20 -21 20 -9 0 -16 -8 -16 -20z m-1550 -3094 c0 -16 81 -26 216 -26
73 0 94 -3 94 -14 0 -14 67 -26 148 -26 31 0 42 -4 42 -15 0 -11 11 -15 39
-15 83 0 161 -13 161 -26 0 -10 15 -14 54 -14 97 0 176 -12 176 -26 0 -11 29
-14 138 -14 202 0 322 -10 322 -26 0 -11 50 -14 269 -14 303 0 391 -6 391 -26
0 -12 56 -14 310 -14 255 0 310 2 310 14 0 19 73 26 268 26 155 0 162 -1 162
-20 0 -19 7 -20 155 -20 125 0 155 -3 155 -14 0 -19 32 -26 118 -26 54 0 72
-3 72 -14 0 -15 43 -26 106 -26 31 0 44 -4 44 -14 0 -14 42 -26 91 -26 18 0
29 -5 29 -14 0 -13 41 -26 86 -26 15 0 24 -6 24 -15 0 -9 9 -15 21 -15 12 0
23 -8 26 -19 3 -12 17 -21 39 -26 20 -3 34 -12 34 -20 0 -8 9 -15 20 -15 13 0
20 -7 20 -20 0 -13 7 -20 20 -20 13 0 20 -7 20 -20 0 -13 7 -20 20 -20 11 0
20 -6 20 -14 0 -7 9 -16 20 -19 12 -3 20 -14 20 -26 0 -12 6 -21 14 -21 7 0
16 -9 19 -20 3 -11 12 -20 20 -20 8 0 17 -9 20 -20 3 -11 12 -20 21 -20 12 0
16 -10 16 -35 0 -28 4 -35 20 -35 16 0 20 -7 20 -35 0 -28 4 -35 20 -35 15 0
20 -7 20 -25 0 -15 6 -25 14 -25 16 0 26 -30 26 -77 0 -22 5 -33 14 -33 9 0
17 -15 21 -40 4 -25 12 -40 21 -40 9 0 14 -11 14 -29 0 -49 12 -91 26 -91 10
0 14 -13 14 -44 0 -63 11 -106 26 -106 10 0 14 -16 14 -59 0 -102 12 -181 26
-181 11 0 14 -42 14 -222 0 -276 8 -388 26 -388 10 0 14 -16 14 -60 0 -44 -4
-60 -14 -60 -14 0 -26 -79 -26 -176 0 -39 -4 -54 -14 -54 -10 0 -15 -27 -21
-115 -5 -82 -11 -115 -19 -115 -13 0 -26 -118 -26 -227 0 -32 -4 -43 -15 -43
-12 0 -15 -15 -15 -79 0 -114 -11 -201 -25 -201 -17 0 -25 -252 -25 -807 0
-405 -2 -463 -15 -463 -13 0 -15 -29 -15 -204 0 -218 -5 -266 -26 -266 -11 0
-14 -21 -14 -95 0 -88 -1 -95 -20 -95 -18 0 -20 -7 -20 -60 0 -44 -4 -60 -14
-60 -16 0 -26 -30 -26 -77 0 -21 -5 -33 -14 -33 -14 0 -26 -42 -26 -91 0 -18
-5 -29 -14 -29 -13 0 -26 -41 -26 -86 0 -14 -6 -24 -14 -24 -8 0 -16 -16 -20
-40 -4 -24 -12 -40 -20 -40 -8 0 -16 -16 -20 -40 -4 -26 -11 -40 -21 -40 -8 0
-15 -9 -15 -20 0 -13 -7 -20 -20 -20 -17 0 -20 -7 -20 -40 0 -33 -3 -40 -20
-40 -13 0 -20 -7 -20 -20 0 -13 -7 -20 -20 -20 -13 0 -20 -7 -20 -20 0 -11 -6
-20 -14 -20 -7 0 -16 -9 -19 -20 -3 -11 -12 -20 -20 -20 -8 0 -17 -9 -20 -20
-3 -11 -12 -20 -20 -20 -8 0 -17 -9 -20 -20 -3 -11 -12 -20 -21 -20 -12 0 -16
-10 -16 -35 0 -28 -4 -35 -20 -35 -17 0 -20 -7 -20 -40 0 -33 -3 -40 -20 -40
-16 0 -20 -7 -20 -34 0 -25 -5 -35 -20 -39 -12 -3 -20 -14 -20 -26 0 -12 -6
-21 -15 -21 -8 0 -17 -14 -21 -35 -3 -20 -12 -35 -20 -35 -8 0 -14 -9 -14 -20
0 -13 -7 -20 -19 -20 -14 0 -21 -10 -25 -35 -4 -21 -13 -35 -21 -35 -8 0 -15
-9 -15 -20 0 -13 -7 -20 -20 -20 -15 0 -20 -7 -20 -25 0 -18 -5 -25 -20 -25
-16 0 -20 -7 -20 -35 0 -28 -4 -35 -20 -35 -13 0 -20 -7 -20 -20 0 -13 -7 -20
-20 -20 -13 0 -20 -7 -20 -20 0 -11 -6 -20 -14 -20 -7 0 -16 -9 -19 -20 -3
-11 -12 -20 -20 -20 -8 0 -17 -9 -20 -20 -3 -11 -12 -20 -20 -20 -8 0 -17 -9
-20 -20 -3 -11 -12 -20 -21 -20 -9 0 -16 -7 -16 -15 0 -8 -9 -15 -20 -15 -13
0 -20 -7 -20 -20 0 -13 -7 -20 -20 -20 -13 0 -20 -7 -20 -20 0 -13 -7 -20 -20
-20 -13 0 -20 -7 -20 -20 0 -13 -7 -20 -20 -20 -13 0 -20 -7 -20 -20 0 -13 -7
-20 -20 -20 -13 0 -20 -7 -20 -20 0 -13 -7 -20 -20 -20 -11 0 -20 -7 -20 -15
0 -8 -14 -17 -35 -21 -20 -3 -35 -12 -35 -20 0 -8 -9 -14 -20 -14 -13 0 -20
-7 -20 -20 0 -13 -7 -20 -20 -20 -13 0 -20 -7 -20 -19 0 -14 -10 -21 -35 -25
-21 -4 -35 -13 -35 -21 0 -8 -9 -15 -20 -15 -12 0 -20 -7 -20 -16 0 -9 -9 -18
-19 -21 -11 -3 -21 -13 -24 -24 -3 -11 -14 -19 -26 -19 -12 0 -21 -6 -21 -15
0 -8 -14 -17 -35 -21 -25 -4 -35 -11 -35 -25 0 -12 -7 -19 -20 -19 -11 0 -20
-6 -20 -14 0 -7 -9 -16 -20 -19 -11 -3 -20 -12 -20 -21 0 -9 -8 -16 -20 -16
-13 0 -20 -7 -20 -19 0 -14 -10 -21 -35 -25 -21 -4 -35 -13 -35 -21 0 -8 -9
-15 -20 -15 -13 0 -20 -7 -20 -20 0 -13 -7 -20 -20 -20 -11 0 -20 -6 -20 -14
0 -9 -15 -17 -40 -21 -30 -5 -40 -11 -40 -26 0 -15 -7 -19 -35 -19 -23 0 -35
-5 -35 -14 0 -9 -15 -17 -40 -21 -23 -4 -40 -12 -40 -20 0 -8 -17 -16 -40 -20
-25 -4 -40 -12 -40 -21 0 -9 -11 -14 -29 -14 -49 0 -91 -12 -91 -26 0 -12 -54
-14 -310 -14 -269 0 -310 2 -310 15 0 12 -15 15 -75 15 -60 0 -75 -3 -75 -15
0 -13 -48 -15 -370 -15 -363 0 -370 0 -370 20 0 18 -7 20 -60 20 -44 0 -60 4
-60 14 0 16 -30 26 -77 26 -22 0 -33 5 -33 14 0 9 -15 17 -40 21 -23 4 -40 12
-40 20 0 7 -16 16 -35 19 -19 4 -35 13 -35 20 0 8 -17 16 -40 20 -26 4 -40 11
-40 21 0 8 -9 15 -20 15 -13 0 -20 7 -20 20 0 16 -7 20 -34 20 -25 0 -35 5
-39 20 -3 12 -14 20 -26 20 -14 0 -21 6 -21 20 0 13 -7 20 -20 20 -13 0 -20 7
-20 20 0 13 -7 20 -20 20 -11 0 -20 7 -20 15 0 8 -7 15 -15 15 -8 0 -15 9 -15
20 0 13 -7 20 -20 20 -13 0 -20 7 -20 20 0 13 -7 20 -20 20 -13 0 -20 7 -20
20 0 13 -7 20 -20 20 -13 0 -20 7 -20 20 0 13 -7 20 -20 20 -13 0 -20 7 -20
20 0 13 -7 20 -20 20 -13 0 -20 7 -20 20 0 13 -7 20 -20 20 -13 0 -20 7 -20
20 0 11 -7 20 -15 20 -8 0 -15 7 -15 15 0 8 -9 15 -20 15 -13 0 -20 7 -20 20
0 13 -7 20 -20 20 -13 0 -20 7 -20 20 0 13 -7 20 -20 20 -13 0 -20 7 -20 20 0
13 -7 20 -20 20 -13 0 -20 7 -20 20 0 13 -7 20 -20 20 -11 0 -20 7 -20 15 0 8
-7 15 -16 15 -9 0 -18 9 -21 20 -3 11 -12 20 -20 20 -8 0 -17 9 -20 20 -3 11
-12 20 -19 20 -8 0 -14 9 -14 20 0 13 -7 20 -20 20 -13 0 -20 7 -20 20 0 13
-7 20 -20 20 -13 0 -20 7 -20 20 0 13 -7 20 -20 20 -13 0 -20 7 -20 20 0 13
-7 20 -20 20 -13 0 -20 7 -20 20 0 11 -6 20 -14 20 -8 0 -17 15 -20 34 -4 22
-13 36 -26 39 -12 3 -20 14 -20 26 0 12 -6 21 -14 21 -7 0 -16 9 -19 20 -3 11
-12 20 -21 20 -12 0 -16 10 -16 35 0 28 -4 35 -19 35 -15 0 -21 10 -26 40 -4
23 -12 40 -20 40 -7 0 -15 9 -18 20 -3 11 -12 20 -21 20 -12 0 -16 10 -16 35
0 25 -4 35 -16 35 -9 0 -18 9 -21 20 -3 11 -11 20 -18 20 -8 0 -16 17 -20 40
-4 23 -12 40 -20 40 -8 0 -16 17 -20 40 -4 23 -12 40 -20 40 -8 0 -16 17 -20
40 -4 25 -12 40 -21 40 -9 0 -14 12 -14 35 0 28 -4 35 -20 35 -17 0 -20 7 -20
40 0 33 -3 40 -20 40 -16 0 -20 7 -20 33 0 47 -10 77 -26 77 -10 0 -14 12 -14
39 0 30 -4 40 -20 44 -15 4 -20 14 -20 41 0 29 -4 36 -20 36 -13 0 -20 7 -20
20 0 11 -6 20 -14 20 -9 0 -17 15 -21 40 -4 23 -12 40 -20 40 -7 0 -16 16 -19
35 -4 20 -13 35 -21 35 -8 0 -16 16 -20 40 -4 23 -12 40 -20 40 -8 0 -16 17
-20 40 -4 25 -12 40 -21 40 -10 0 -14 14 -14 54 0 45 -3 54 -20 59 -17 4 -20
14 -20 66 0 45 -4 61 -14 61 -14 0 -26 67 -26 148 0 28 -4 42 -13 42 -19 0
-27 165 -27 559 0 411 8 601 27 601 10 0 13 39 13 199 0 214 5 261 26 261 12
0 14 71 14 425 0 418 0 425 20 425 13 0 20 7 20 20 0 11 -7 20 -15 20 -12 0
-15 16 -15 80 0 64 3 80 15 80 12 0 15 19 15 115 0 91 3 115 14 115 17 0 26
31 26 98 0 45 3 52 20 52 18 0 20 7 20 60 0 53 2 60 20 60 18 0 20 7 20 80 0
61 3 80 14 80 17 0 26 44 26 126 0 50 3 64 15 64 11 0 15 12 15 44 0 63 11
106 26 106 10 0 14 16 14 60 0 53 2 60 20 60 18 0 20 7 20 80 0 73 2 80 20 80
17 0 20 7 20 40 0 27 4 40 14 40 16 0 26 30 26 78 0 25 4 32 20 32 17 0 20 7
20 40 0 28 4 40 15 40 8 0 17 14 21 35 3 19 12 35 19 35 8 0 16 17 20 40 4 23
12 40 20 40 7 0 16 16 19 35 4 21 13 35 21 35 8 0 15 9 15 20 0 13 7 20 20 20
15 0 20 7 20 25 0 18 5 25 20 25 13 0 20 7 20 20 0 11 7 20 15 20 8 0 15 7 15
16 0 9 9 18 20 21 11 3 20 12 20 19 0 8 9 14 20 14 13 0 20 7 20 20 0 14 7 20
21 20 12 0 23 8 26 20 3 11 11 20 18 20 7 0 15 9 18 20 4 15 14 20 41 20 29 0
36 4 36 20 0 13 7 20 20 20 11 0 20 6 20 14 0 9 15 17 40 21 23 4 40 12 40 20
0 7 16 16 35 19 21 4 35 13 35 21 0 10 10 15 29 15 49 0 91 12 91 26 0 10 14
14 49 14 68 0 111 10 111 26 0 12 45 14 250 14 204 0 250 -3 250 -14z"/>
<path d="M6610 10046 c0 -10 -21 -16 -75 -21 -52 -5 -75 -11 -75 -20 0 -8 -17
-16 -40 -20 -25 -4 -40 -12 -40 -21 0 -8 -9 -14 -20 -14 -13 0 -20 -7 -20 -20
0 -16 -7 -20 -36 -20 -27 0 -37 -5 -41 -19 -3 -11 -13 -21 -24 -24 -10 -3 -19
-12 -19 -21 0 -9 -7 -16 -15 -16 -8 0 -15 -9 -15 -20 0 -13 -7 -20 -20 -20
-13 0 -20 -7 -20 -20 0 -13 -7 -20 -20 -20 -16 0 -20 -7 -20 -35 0 -28 -4 -35
-20 -35 -17 0 -20 -7 -20 -40 0 -33 -3 -40 -20 -40 -19 0 -20 -7 -20 -94 l0
-93 30 -6 c40 -9 90 2 90 19 0 8 9 14 20 14 13 0 20 7 20 19 0 14 10 21 35 25
21 4 35 13 35 21 0 8 8 15 19 15 10 0 21 9 24 20 4 15 14 20 41 20 29 0 36 4
36 20 0 16 7 20 34 20 25 0 35 5 39 20 4 16 14 20 46 20 30 0 41 4 41 15 0 13
32 15 225 15 193 0 225 -2 225 -15 0 -12 14 -15 69 -15 87 0 131 -9 131 -26 0
-11 18 -14 76 -14 67 0 76 -2 81 -20 4 -17 14 -20 57 -20 65 0 96 -9 96 -26 0
-10 16 -14 60 -14 44 0 60 -4 60 -14 0 -19 32 -26 118 -26 65 0 72 2 72 20 0
13 7 20 20 20 13 0 20 7 20 20 0 11 6 20 14 20 20 0 26 33 26 158 l0 112 -34
0 c-25 0 -35 5 -39 20 -3 12 -14 20 -26 20 -12 0 -21 6 -21 14 0 14 -42 26
-91 26 -18 0 -29 5 -29 14 0 10 -20 16 -75 21 -50 5 -75 12 -75 20 0 8 -22 15
-60 19 -43 5 -60 11 -60 21 0 11 -13 15 -47 15 -111 0 -213 13 -213 26 0 11
-47 14 -255 14 -210 0 -255 -2 -255 -14z"/>
<path d="M10330 9850 c0 -19 -7 -20 -94 -20 -85 0 -94 -2 -99 -20 -5 -18 -14
-20 -86 -20 -62 0 -81 -3 -81 -14 0 -17 -31 -26 -92 -26 -35 0 -48 -4 -48 -14
0 -9 -15 -17 -39 -21 -37 -6 -40 -9 -46 -46 -4 -24 -12 -39 -21 -39 -11 0 -14
-19 -14 -89 0 -80 2 -89 20 -94 12 -3 20 -14 20 -26 0 -12 6 -21 15 -21 8 0
15 -6 15 -14 0 -20 54 -27 148 -20 56 5 82 11 82 19 0 9 26 15 80 20 58 5 80
11 80 21 0 10 14 14 49 14 66 0 111 10 111 25 0 9 50 13 189 18 241 8 471 -1
471 -18 0 -8 23 -15 60 -19 42 -5 60 -11 60 -21 0 -8 15 -17 35 -21 19 -3 35
-12 35 -19 0 -7 9 -15 20 -18 11 -3 20 -12 20 -21 0 -9 8 -16 20 -16 13 0 20
-7 20 -20 0 -13 7 -20 20 -20 13 0 20 -7 20 -20 0 -13 7 -20 20 -20 13 0 20
-7 20 -20 0 -11 7 -20 15 -20 8 0 15 -9 15 -20 0 -13 7 -20 20 -20 13 0 20 -7
20 -20 0 -13 7 -20 20 -20 13 0 20 -7 20 -20 0 -28 69 -29 77 -1 3 11 13 21
24 24 16 4 19 15 19 70 0 83 -9 127 -26 127 -9 0 -14 12 -14 33 0 47 -10 77
-26 77 -8 0 -14 9 -14 21 0 12 -8 23 -20 26 -15 4 -20 14 -20 39 0 27 -4 34
-20 34 -13 0 -20 7 -20 20 0 11 -6 20 -14 20 -7 0 -16 9 -19 20 -3 11 -12 20
-21 20 -9 0 -16 7 -16 16 0 9 -9 18 -19 21 -11 3 -21 13 -24 24 -3 10 -12 19
-21 19 -9 0 -16 6 -16 14 0 9 -15 17 -40 21 -23 4 -40 12 -40 20 0 8 -17 16
-40 20 -25 4 -40 12 -40 21 0 11 -17 14 -75 14 -57 0 -75 3 -75 14 0 22 -49
26 -341 26 -272 0 -279 0 -279 -20z"/>
<path d="M6690 8886 c0 -14 -42 -26 -91 -26 -19 0 -29 -5 -29 -15 0 -9 -9 -15
-24 -15 -45 0 -86 -13 -86 -26 0 -8 -9 -14 -21 -14 -12 0 -23 -8 -26 -20 -4
-15 -14 -20 -39 -20 -27 0 -34 -4 -34 -19 0 -14 -10 -21 -35 -25 -21 -4 -35
-13 -35 -21 0 -8 -9 -15 -20 -15 -13 0 -20 -7 -20 -20 0 -13 -7 -20 -19 -20
-14 0 -21 -10 -25 -35 -4 -22 -13 -35 -22 -35 -9 0 -18 -9 -21 -20 -3 -11 -12
-20 -19 -20 -8 0 -14 -9 -14 -21 0 -12 -8 -23 -20 -26 -15 -4 -20 -14 -20 -39
0 -27 -4 -34 -20 -34 -18 0 -20 -7 -20 -60 0 -54 -2 -60 -20 -60 -19 0 -21 -5
-18 -77 3 -65 6 -78 21 -81 12 -3 17 3 17 22 0 19 5 26 20 26 18 0 20 7 20 54
0 45 3 54 20 59 17 4 20 14 20 56 0 49 1 50 35 57 29 5 35 11 41 40 4 21 12
34 21 34 8 0 17 9 20 20 3 11 12 20 19 20 8 0 14 9 14 20 0 13 7 20 20 20 13
0 20 7 20 20 0 13 7 20 20 20 13 0 20 7 20 20 0 17 7 20 40 20 33 0 40 3 40
20 0 13 7 20 20 20 11 0 20 7 20 15 0 10 14 17 40 21 24 4 40 12 40 20 0 8 16
16 40 20 24 4 40 12 40 20 0 9 12 14 38 14 63 0 112 12 112 26 0 11 33 14 170
14 138 0 170 -3 170 -14 0 -10 21 -16 75 -21 51 -4 75 -11 75 -20 0 -7 17 -15
40 -19 26 -4 40 -11 40 -21 0 -11 11 -15 40 -15 32 0 40 -4 40 -19 0 -14 10
-20 40 -25 26 -4 40 -11 40 -21 0 -8 9 -15 20 -15 13 0 20 -7 20 -20 0 -13 7
-20 20 -20 13 0 20 -7 20 -20 0 -13 7 -20 20 -20 13 0 20 -7 20 -20 0 -11 7
-20 15 -20 8 0 15 -7 15 -16 0 -9 9 -18 19 -21 11 -3 21 -13 24 -24 3 -10 12
-19 21 -19 9 0 18 -13 22 -35 3 -20 12 -35 20 -35 8 0 14 -9 14 -20 0 -13 7
-20 20 -20 17 0 20 -7 20 -40 0 -33 3 -40 20 -40 18 0 20 -7 20 -60 0 -44 4
-60 14 -60 17 0 26 -31 26 -97 0 -46 3 -53 20 -53 19 0 20 7 20 93 0 105 -6
137 -26 137 -10 0 -14 13 -14 40 0 33 -3 40 -20 40 -17 0 -20 7 -20 40 0 33
-3 40 -20 40 -16 0 -20 7 -20 34 0 25 -5 35 -20 39 -12 3 -20 14 -20 26 0 12
-6 21 -14 21 -7 0 -16 9 -19 20 -3 11 -12 20 -20 20 -9 0 -17 14 -21 35 -4 22
-13 35 -22 35 -9 0 -18 9 -21 20 -3 11 -14 20 -24 20 -12 0 -19 7 -19 20 0 16
-7 20 -35 20 -28 0 -35 4 -35 20 0 13 -7 20 -20 20 -13 0 -20 7 -20 20 0 13
-7 20 -20 20 -11 0 -20 6 -20 14 0 9 -15 17 -40 21 -22 4 -40 12 -40 20 0 13
-42 25 -86 25 -14 0 -24 6 -24 14 0 9 -19 16 -60 20 -43 5 -60 11 -60 21 0 13
-36 15 -230 15 -188 0 -230 -2 -230 -14z"/>
<path d="M6880 8650 c0 -18 -7 -20 -55 -20 -48 0 -55 -2 -55 -20 0 -17 -7 -20
-40 -20 -33 0 -40 -3 -40 -20 0 -13 -7 -20 -20 -20 -13 0 -20 -7 -20 -20 0
-13 -7 -20 -20 -20 -11 0 -20 -6 -20 -14 0 -7 -9 -16 -20 -19 -12 -3 -20 -14
-20 -26 0 -12 -6 -21 -15 -21 -8 0 -17 -14 -21 -35 -3 -19 -12 -35 -19 -35 -8
0 -16 -17 -20 -40 -4 -23 -12 -40 -20 -40 -18 0 -30 -144 -20 -255 5 -63 10
-85 21 -85 10 0 14 -12 14 -40 0 -34 3 -40 21 -40 12 0 23 -8 26 -20 5 -18 14
-20 92 -20 99 0 131 -7 131 -26 0 -11 17 -14 69 -14 87 0 131 -9 131 -26 0
-11 18 -14 74 -14 65 0 74 -2 79 -20 5 -18 14 -20 95 -20 81 0 90 -2 95 -20 4
-16 14 -20 46 -20 34 0 41 3 41 20 0 13 7 20 20 20 13 0 20 7 20 20 0 11 7 20
15 20 8 0 15 7 15 16 0 9 9 18 20 21 11 3 20 14 20 24 0 12 7 19 20 19 16 0
20 7 20 34 0 25 5 35 20 39 19 5 20 14 20 177 0 163 -1 172 -20 177 -18 5 -20
14 -20 74 0 62 -2 69 -20 69 -15 0 -20 7 -20 25 0 18 -5 25 -20 25 -13 0 -20
7 -20 20 0 11 -6 20 -14 20 -7 0 -16 9 -19 20 -3 11 -12 20 -21 20 -9 0 -16 7
-16 15 0 9 -9 15 -21 15 -12 0 -23 8 -26 20 -4 15 -14 20 -39 20 -27 0 -34 4
-34 20 0 17 -7 20 -40 20 -27 0 -40 4 -40 14 0 20 -46 26 -186 26 -117 0 -124
-1 -124 -20z m0 -195 c0 -8 9 -15 20 -15 15 0 20 -7 20 -25 0 -18 5 -25 20
-25 16 0 20 -7 20 -35 0 -24 -5 -35 -15 -35 -10 0 -17 -14 -21 -40 -5 -30 -11
-40 -25 -40 -11 0 -19 -6 -19 -14 0 -16 -52 -28 -86 -20 -13 3 -24 12 -24 20
0 8 -9 14 -21 14 -12 0 -23 8 -26 20 -3 11 -12 20 -19 20 -10 0 -14 16 -14 60
0 44 4 60 14 60 7 0 16 9 19 20 3 12 14 20 26 20 12 0 21 6 21 15 0 12 13 15
55 15 42 0 55 -3 55 -15z"/>
<path d="M10170 8616 c0 -15 -43 -26 -106 -26 -31 0 -44 -4 -44 -14 0 -9 -15
-17 -40 -21 -23 -4 -40 -12 -40 -20 0 -8 -17 -16 -40 -20 -25 -4 -40 -12 -40
-21 0 -8 -9 -14 -20 -14 -13 0 -20 -7 -20 -20 0 -16 -7 -20 -35 -20 -28 0 -35
-4 -35 -20 0 -13 -7 -20 -20 -20 -13 0 -20 -7 -20 -20 0 -13 -7 -20 -20 -20
-13 0 -20 -7 -20 -20 0 -13 -7 -20 -20 -20 -13 0 -20 -7 -20 -20 0 -13 -7 -20
-20 -20 -13 0 -20 -7 -20 -20 0 -13 -7 -20 -20 -20 -13 0 -20 -7 -20 -20 0
-11 -7 -20 -15 -20 -8 0 -17 -14 -21 -35 -3 -19 -12 -35 -19 -35 -8 0 -16 -17
-20 -40 -4 -23 -12 -40 -20 -40 -8 0 -16 -17 -20 -40 -4 -25 -12 -40 -21 -40
-11 0 -14 -17 -14 -75 0 -58 3 -75 14 -75 9 0 17 15 21 40 4 22 12 40 20 40
12 0 25 42 25 85 0 14 7 25 20 28 14 4 20 14 20 35 0 21 6 31 20 35 11 3 20
12 20 21 0 9 6 16 14 16 8 0 16 16 20 40 4 26 11 40 21 40 8 0 15 9 15 20 0
13 7 20 20 20 13 0 20 7 20 20 0 13 7 20 20 20 13 0 20 7 20 20 0 13 7 20 20
20 11 0 20 7 20 15 0 8 14 17 34 20 22 5 36 14 39 26 3 11 14 19 26 19 12 0
21 6 21 15 0 8 14 17 35 21 19 3 35 12 35 19 0 8 17 16 40 20 25 4 40 12 40
21 0 10 14 14 56 14 47 0 57 3 61 20 5 19 14 20 214 20 171 0 209 -3 209 -14
0 -15 43 -26 105 -26 34 0 44 -4 48 -20 4 -15 14 -20 41 -20 24 0 36 -5 36
-14 0 -9 15 -17 40 -21 25 -4 40 -12 40 -21 0 -8 9 -14 20 -14 13 0 20 -7 20
-20 0 -13 7 -20 20 -20 13 0 20 -7 20 -20 0 -16 7 -20 35 -20 28 0 35 -4 35
-20 0 -13 7 -20 20 -20 13 0 20 -7 20 -20 0 -13 7 -20 20 -20 16 0 20 -7 20
-35 0 -28 4 -35 20 -35 14 0 20 -7 20 -21 0 -12 8 -23 20 -26 15 -4 20 -14 20
-38 0 -24 5 -34 20 -38 15 -4 20 -14 20 -41 0 -24 5 -36 14 -36 16 0 26 -30
26 -77 0 -21 5 -33 14 -33 15 0 26 -49 26 -117 0 -57 26 -59 35 -3 4 25 12 40
21 40 10 0 14 12 14 40 0 29 -4 40 -15 40 -10 0 -15 10 -15 34 0 75 -13 156
-25 156 -7 0 -16 16 -19 35 -4 19 -13 35 -20 35 -8 0 -16 17 -20 40 -4 26 -11
40 -21 40 -8 0 -15 9 -15 20 0 13 -7 20 -20 20 -15 0 -20 7 -20 25 0 15 -6 25
-14 25 -8 0 -17 13 -21 30 -5 24 -13 31 -41 36 -20 4 -34 12 -34 21 0 8 -9 17
-19 20 -11 3 -21 13 -24 24 -3 11 -14 19 -26 19 -12 0 -21 6 -21 14 0 7 -9 16
-20 19 -11 3 -20 12 -20 21 0 12 -10 16 -35 16 -28 0 -35 4 -35 20 0 16 -7 20
-32 20 -48 0 -78 10 -78 26 0 9 -11 14 -29 14 -49 0 -91 12 -91 26 0 12 -42
14 -235 14 -193 0 -235 -2 -235 -14z"/>
<path d="M10118 8393 c-10 -2 -18 -11 -18 -19 0 -8 -10 -14 -25 -14 -18 0 -25
-5 -25 -20 0 -16 -7 -20 -35 -20 -28 0 -35 -4 -35 -20 0 -13 -7 -20 -20 -20
-13 0 -20 -7 -20 -20 0 -13 -7 -20 -20 -20 -13 0 -20 -7 -20 -20 0 -13 -7 -20
-20 -20 -13 0 -20 -7 -20 -20 0 -11 -6 -20 -14 -20 -13 0 -26 -41 -26 -86 0
-14 -6 -24 -14 -24 -17 0 -26 -44 -26 -126 0 -50 -3 -64 -15 -64 -12 0 -15
-13 -15 -60 0 -44 4 -60 14 -60 9 0 16 -19 20 -60 5 -40 11 -60 20 -60 8 0 17
-16 20 -35 4 -21 13 -35 21 -35 9 0 15 -9 15 -21 0 -12 8 -23 20 -26 11 -3 20
-12 20 -19 0 -11 30 -14 155 -14 124 0 155 3 155 14 0 18 112 26 373 26 177 0
207 2 207 15 0 8 9 15 20 15 17 0 20 7 20 40 0 33 3 40 20 40 18 0 20 7 20 80
0 61 3 80 14 80 17 0 26 44 26 126 0 57 -2 64 -20 64 -18 0 -20 7 -20 54 0 45
-3 54 -20 59 -12 3 -20 14 -20 26 0 12 -6 21 -15 21 -8 0 -17 14 -21 35 -4 21
-12 35 -21 35 -8 0 -17 9 -20 20 -3 11 -12 20 -19 20 -8 0 -14 9 -14 20 0 13
-7 20 -20 20 -13 0 -20 7 -20 20 0 13 -7 20 -19 20 -10 0 -21 9 -24 20 -4 15
-14 20 -41 20 -24 0 -36 5 -36 14 0 7 -14 16 -31 20 -35 7 -384 6 -411 -1z
m70 -193 c19 0 22 -5 22 -35 0 -28 4 -35 20 -35 17 0 20 -7 20 -40 0 -33 -3
-40 -20 -40 -16 0 -20 -7 -20 -34 0 -41 -13 -46 -117 -46 -66 0 -73 2 -73 20
0 13 -7 20 -20 20 -18 0 -20 7 -20 60 0 46 3 60 15 60 8 0 17 14 21 34 5 31
10 35 43 39 20 3 52 3 71 1 19 -2 45 -4 58 -4z"/>
<path d="M9360 7740 c0 -29 4 -40 15 -40 11 0 15 11 15 40 0 29 -4 40 -15 40
-11 0 -15 -11 -15 -40z"/>
<path d="M8010 6555 c0 -8 -9 -15 -20 -15 -19 0 -20 -7 -20 -100 0 -82 3 -100
15 -100 9 0 15 -9 15 -24 0 -45 13 -86 26 -86 8 0 14 -9 14 -20 0 -13 7 -20
19 -20 13 0 20 -10 25 -31 7 -37 1 -49 -25 -49 -10 0 -19 -7 -19 -15 0 -8 -7
-15 -15 -15 -8 0 -15 6 -15 14 0 11 -28 15 -120 21 -92 6 -120 10 -120 21 0
11 -16 14 -63 14 -132 0 -247 12 -247 26 0 12 -50 14 -270 14 -222 0 -270 -2
-270 -14 0 -17 -44 -26 -126 -26 -48 0 -64 -4 -64 -14 0 -14 -42 -26 -91 -26
-18 0 -29 -5 -29 -14 0 -9 -15 -17 -40 -21 -23 -4 -40 -12 -40 -20 0 -7 -16
-16 -35 -19 -22 -4 -35 -13 -35 -22 0 -9 -9 -18 -20 -21 -15 -4 -20 -14 -20
-39 0 -27 -4 -34 -20 -34 -18 0 -20 -7 -20 -60 0 -46 3 -60 15 -60 8 0 17 -14
20 -34 5 -22 14 -36 26 -39 10 -3 19 -12 19 -21 0 -12 10 -16 36 -16 27 0 37
-5 41 -20 3 -11 14 -20 24 -20 12 0 19 -7 19 -20 0 -16 7 -20 35 -20 28 0 35
-4 35 -20 0 -15 7 -20 29 -20 49 0 91 12 91 26 0 22 27 16 33 -6 4 -17 14 -20
61 -20 49 0 56 -2 56 -20 0 -13 7 -20 20 -20 13 0 20 -7 20 -20 0 -11 6 -20
14 -20 7 0 16 -9 19 -20 3 -11 12 -20 20 -20 8 0 17 -9 20 -20 3 -11 12 -20
20 -20 8 0 17 -9 20 -20 3 -11 12 -20 21 -20 12 0 16 -10 16 -35 0 -28 4 -35
20 -35 13 0 20 -7 20 -20 0 -13 7 -20 20 -20 13 0 20 -7 20 -20 0 -13 7 -20
20 -20 16 0 20 -7 20 -35 0 -25 4 -35 16 -35 9 0 18 -9 21 -20 3 -11 12 -20
20 -20 8 0 17 -9 20 -20 3 -11 12 -20 20 -20 8 0 17 -9 20 -20 3 -11 11 -20
18 -20 7 0 15 -9 18 -20 4 -15 14 -20 41 -20 29 0 36 -4 36 -20 0 -13 7 -20
20 -20 13 0 20 -7 20 -20 0 -13 7 -20 20 -20 13 0 20 -7 20 -20 0 -16 7 -20
34 -20 25 0 35 -5 39 -20 3 -11 12 -20 20 -20 8 0 17 -9 20 -20 3 -11 12 -20
21 -20 9 0 16 -6 16 -14 0 -8 16 -16 40 -20 26 -4 40 -11 40 -21 0 -11 11 -15
40 -15 33 0 40 -3 40 -20 0 -16 7 -20 35 -20 28 0 35 -4 35 -20 0 -17 7 -20
40 -20 33 0 40 -3 40 -20 0 -17 7 -20 40 -20 33 0 40 -3 40 -20 0 -18 7 -20
60 -20 45 0 60 -4 60 -14 0 -18 65 -30 114 -21 66 13 36 45 -41 45 -22 0 -33
5 -33 14 0 8 -10 16 -22 18 -13 2 -24 11 -26 21 -3 14 4 17 42 17 32 0 46 -4
46 -14 0 -14 42 -26 91 -26 18 0 29 -5 29 -14 0 -9 19 -15 64 -18 77 -7 116 0
116 18 0 11 16 14 65 14 49 0 65 -3 65 -14 0 -9 -17 -16 -45 -20 -29 -5 -45
-12 -45 -22 0 -11 -18 -14 -84 -14 -101 0 -146 -8 -146 -26 0 -12 42 -14 235
-14 202 0 235 2 235 15 0 11 12 15 44 15 63 0 106 11 106 26 0 10 15 14 56 14
47 0 57 3 61 20 4 16 14 20 44 20 32 0 39 3 39 20 0 17 7 20 40 20 33 0 40 3
40 20 0 16 7 20 35 20 28 0 35 4 35 20 0 17 7 20 40 20 28 0 40 4 40 14 0 9
15 17 40 21 23 4 40 12 40 20 0 7 9 15 20 18 11 3 20 12 20 20 0 9 14 17 35
21 21 4 35 13 35 21 0 8 9 15 20 15 13 0 20 7 20 20 0 16 7 20 36 20 27 0 37
5 41 19 3 11 13 21 24 24 10 3 19 12 19 20 0 8 9 17 20 20 11 3 20 12 20 21 0
9 7 16 15 16 8 0 17 14 21 35 4 25 11 35 25 35 12 0 19 7 19 19 0 13 9 21 29
26 17 3 31 14 34 26 3 11 14 19 26 19 12 0 21 6 21 15 0 8 9 15 20 15 13 0 20
7 20 20 0 13 7 20 20 20 13 0 20 7 20 20 0 16 7 20 35 20 28 0 35 4 35 20 0
18 7 20 60 20 53 0 60 -2 60 -20 0 -19 7 -20 100 -20 82 0 100 3 100 15 0 8 7
15 15 15 8 0 15 9 15 20 0 13 7 20 20 20 13 0 20 7 20 19 0 14 10 21 35 25 31
6 36 11 41 46 4 22 12 40 19 40 15 0 25 31 25 78 0 25 -4 32 -20 32 -17 0 -20
7 -20 40 0 33 -3 40 -20 40 -13 0 -20 7 -20 20 0 13 -7 20 -20 20 -13 0 -20 7
-20 20 0 13 -7 20 -20 20 -11 0 -20 7 -20 15 0 8 -9 15 -20 15 -13 0 -20 7
-20 20 0 16 -7 20 -36 20 -27 0 -37 5 -41 20 -4 16 -14 20 -44 20 -32 0 -39 3
-39 20 0 11 -7 20 -15 20 -8 0 -15 -7 -15 -15 0 -8 -9 -15 -20 -15 -11 0 -20
7 -20 15 0 12 -13 15 -55 15 -48 0 -55 2 -55 20 0 18 -7 20 -80 20 -73 0 -80
2 -80 20 0 19 -7 20 -175 20 -143 0 -175 3 -175 14 0 11 -38 15 -193 21 -106
4 -217 6 -247 5 -30 -2 -92 -2 -137 -2 -66 2 -83 5 -83 17 0 8 9 15 20 15 13
0 20 7 20 20 0 13 7 20 20 20 13 0 20 7 20 20 0 13 7 20 20 20 13 0 20 7 20
20 0 11 6 20 14 20 9 0 17 15 21 40 4 22 12 40 20 40 16 0 25 45 25 135 0 40
-3 87 -6 104 -7 34 -34 43 -34 11 0 -13 -7 -20 -20 -20 -17 0 -20 -7 -20 -40
0 -33 -3 -40 -20 -40 -17 0 -20 -7 -20 -40 0 -33 -3 -40 -20 -40 -13 0 -20 -7
-20 -20 0 -11 -7 -20 -15 -20 -8 0 -15 -7 -15 -15 0 -9 -9 -15 -21 -15 -12 0
-23 -8 -26 -20 -4 -16 -14 -20 -44 -20 -32 0 -39 -3 -39 -20 0 -18 -7 -20 -75
-20 -60 0 -75 -3 -75 -15 0 -12 -17 -15 -95 -15 -78 0 -95 3 -95 15 0 12 -16
15 -80 15 -73 0 -80 2 -80 20 0 18 -7 20 -55 20 -48 0 -55 2 -55 20 0 15 -7
20 -25 20 -15 0 -25 6 -25 15 0 8 -14 17 -35 21 -32 6 -35 9 -35 40 0 27 -4
34 -20 34 -15 0 -20 7 -20 25 0 15 -6 25 -14 25 -15 0 -26 42 -26 101 0 28 -4
39 -15 39 -8 0 -15 -7 -15 -15z"/>
<path d="M7500 4625 c0 -8 9 -15 20 -15 11 0 20 7 20 15 0 8 -9 15 -20 15 -11
0 -20 -7 -20 -15z"/>
<path d="M7540 4585 c0 -8 9 -15 20 -15 11 0 20 7 20 15 0 8 -9 15 -20 15 -11
0 -20 -7 -20 -15z"/>
<path d="M9600 4585 c0 -8 7 -15 15 -15 8 0 15 7 15 15 0 8 -7 15 -15 15 -8 0
-15 -7 -15 -15z"/>
<path d="M7580 4545 c0 -8 9 -15 20 -15 13 0 20 -7 20 -20 0 -13 7 -20 20 -20
13 0 20 -7 20 -19 0 -14 10 -21 35 -25 21 -4 35 -13 35 -21 0 -8 9 -15 20 -15
13 0 20 -7 20 -20 0 -13 7 -20 20 -20 11 0 20 -6 20 -14 0 -9 15 -17 40 -21
30 -5 40 -11 40 -26 0 -15 7 -19 35 -19 24 0 35 -5 35 -14 0 -10 16 -17 45
-22 28 -4 45 -11 45 -20 0 -8 10 -14 24 -14 45 0 86 -13 86 -26 0 -10 16 -14
60 -14 47 0 60 3 60 15 0 11 -11 15 -41 15 -32 0 -42 4 -46 20 -5 17 -14 20
-59 20 -47 0 -54 2 -54 20 0 16 -7 20 -36 20 -27 0 -37 5 -41 20 -4 15 -14 20
-40 20 -26 0 -36 5 -40 20 -4 15 -14 20 -39 20 -27 0 -34 4 -34 20 0 17 -7 20
-40 20 -33 0 -40 3 -40 20 0 13 -7 20 -20 20 -13 0 -20 7 -20 20 0 13 -7 20
-20 20 -11 0 -20 6 -20 14 0 8 -15 17 -35 20 -21 4 -35 13 -35 21 0 8 -9 15
-20 15 -11 0 -20 -7 -20 -15z"/>
<path d="M9550 4545 c0 -8 -7 -15 -16 -15 -9 0 -18 -9 -21 -20 -4 -15 -14 -20
-39 -20 -27 0 -34 -4 -34 -20 0 -17 -7 -20 -40 -20 -33 0 -40 -3 -40 -20 0
-17 -7 -20 -40 -20 -33 0 -40 -3 -40 -20 0 -13 -7 -20 -20 -20 -11 0 -20 -7
-20 -15 0 -10 -14 -17 -40 -21 -24 -4 -40 -12 -40 -20 0 -8 -10 -14 -24 -14
-44 0 -86 -12 -86 -25 0 -8 -18 -16 -40 -20 -25 -4 -40 -12 -40 -21 0 -10 -14
-14 -52 -14 -66 0 -98 -9 -98 -25 0 -9 -41 -14 -155 -20 -122 -6 -155 -10
-155 -21 0 -12 35 -14 195 -14 161 0 195 2 195 14 0 10 20 16 75 21 51 5 75
11 75 20 0 8 17 16 40 20 25 4 40 12 40 21 0 9 12 14 36 14 27 0 37 5 41 20 4
15 14 20 39 20 27 0 34 4 34 19 0 15 10 21 40 26 25 4 40 12 40 21 0 8 9 14
20 14 13 0 20 7 20 20 0 16 7 20 35 20 28 0 35 4 35 20 0 15 7 20 25 20 18 0
25 5 25 20 0 13 7 20 20 20 11 0 20 6 20 14 0 7 9 16 20 19 29 8 26 37 -5 37
-16 0 -25 -6 -25 -15z"/>
<path d="M8360 4155 c0 -8 7 -15 15 -15 8 0 15 7 15 15 0 8 -7 15 -15 15 -8 0
-15 -7 -15 -15z"/>
<path d="M12340 6175 c0 -8 9 -15 20 -15 11 0 20 7 20 15 0 8 -9 15 -20 15
-11 0 -20 -7 -20 -15z"/>
<path d="M12303 6100 c-3 -11 -12 -20 -20 -20 -8 0 -17 -9 -20 -19 -3 -12 -17
-21 -39 -26 -47 -8 -46 -35 1 -35 28 0 35 4 35 20 0 13 7 20 20 20 13 0 20 7
20 20 0 13 7 20 20 20 13 0 20 7 20 20 0 12 -7 20 -16 20 -9 0 -18 -9 -21 -20z"/>
</g>
</svg>
